<svg width="68" height="96" viewBox="0 0 68 96" fill="none" xmlns="http://www.w3.org/2000/svg">
<path d="M63.8564 77.1543L62.8564 77.7324L49 85.7324L48 86.3096L47 85.7324L19.2871 69.7324L18.2871 69.1543V14.8457L19.2871 14.2676L33.1436 6.26758L34.1436 5.69043L35.1436 6.26758L62.8564 22.2676L63.8564 22.8457V77.1543Z" fill="#335FFF" stroke="#0A1352" stroke-width="4"/>
<g opacity="0.3" style="mix-blend-mode:overlay">
<path d="M34.1435 8L61.8563 24L47.9999 32L20.2871 16L34.1435 8Z" fill="white"/>
</g>
<g opacity="0.3" style="mix-blend-mode:overlay">
<path d="M61.8564 76L48 84V32L61.8564 24V76Z" fill="black"/>
</g>
<path d="M40.0576 31.7354V69.3691L23.8662 60.0215V22.3867L40.0576 31.7354Z" fill="#0A1352"/>
<path d="M45.9824 53.2822V60.1807L42.1152 57.9473V51.0498L45.9824 53.2822Z" fill="white"/>
<path d="M32.0456 88.515C31.6722 89.3507 31.0625 90.0788 30.286 90.5387C29.5147 90.9955 28.408 91.2646 27.3021 90.7707L22.7136 88.7212C21.6078 88.2272 21.0696 87.2234 20.895 86.3442C20.7194 85.459 20.8547 84.519 21.228 83.6832C21.6013 82.8474 22.211 82.1194 22.9875 81.6594C23.7588 81.2026 24.8654 80.9335 25.9714 81.4274L30.5599 83.4769C31.6659 83.971 32.204 84.9747 32.3785 85.854C32.5541 86.7392 32.4189 87.6791 32.0456 88.515Z" fill="#335FFF" stroke="#0A1352" stroke-width="4"/>
<path d="M3.2596 81.6733C3.63294 82.5091 4.24271 83.2371 5.01917 83.6971C5.79045 84.1538 6.89714 84.4229 8.00308 83.929L12.5916 81.8796C13.6974 81.3855 14.2356 80.3817 14.4101 79.5025C14.5858 78.6173 14.4505 77.6773 14.0772 76.8415C13.7039 76.0057 13.0942 75.2777 12.3176 74.8177C11.5464 74.3609 10.4398 74.0919 9.33374 74.5858L4.74526 76.6352C3.63928 77.1293 3.10117 78.133 2.92668 79.0123C2.75104 79.8975 2.88627 80.8374 3.2596 81.6733Z" fill="#335FFF" stroke="#0A1352" stroke-width="4"/>
</svg>
